<svg xmlns="http://www.w3.org/2000/svg" width="613.333" height="113.333" viewBox="0 195 460 85"><g fill="#fff"><path d="M2.6 269.3h17.5v-16.9l.3-.3H59l.3-.3h3.3l.3-.3h1.7l.3-.3h1.4l.2-.3 2.3-.2.2-.3h.6l.3-.3h.5l.3-.3 2.2-.5 1.4-.9h.6l1.1-.6.6-.5.8-.3.5-.6 1.2-.5.8-.9h.3l3-3.1v-.3l.9-.8.2-.9.6-.5.8-1.7v-.6l.3-.3v-.5l.3-.3.3-1.1-5.6-6v-.3l-2.8-2.8v-.3l-3-3.1v-.2l-2.8-2.9v-.3l-3.1-3.1v-.2l-2.8-2.9v-.2l-3-3.2v-.2l-3.9-4.3H15.4L4.3 219.3h54.5l.2.3h2.3l.2.3h1.1l1.7.8h.6l.5.6 1.1.6 1.4 1.4 1.7 3.4v3.6l-.3.3v.9l-.8 1.7-2.8 2.8-1.7.8h-.5l-1.1.6h-.9l-.2.3H2.6Zm60.9-64.4v.3l1.9 2v.3l5.9 6.2v.3l2.7 2.8v.3l3.1 3.1v.3l2.8 2.8v.3l3 3.1v.3l2.8 2.8v.3l3.1 3.1v.2l2.8 2.9v.3l3 3.1v.2l2.8 2.9v.2l4.5 4.8v21.5h17.8v-21.5l2.7-3.1-.2-.2v-.9l-.3-.3v-1.1l-.3-.3v-2l-.3-.2v-6.8l.3-.3v-1.7l.3-.3.3-2.2.2-.3.3-1.7.6-.9.2-1.4 1.4-2.8.6-.6.3-.8.5-.6.6-1.1 1.9-2.3v-.2l3.6-3.7h.3l1.1-1.1h.3l.8-.9h.3l2.2-1.7 5.1-2.5h.5l1.7-.9h-9.5l-1.9 2.3v.3l-1.4 1.4v.3l-1.4 1.4v.3l-1.1 1.1v.3l-1.4 1.4v.3l-1.1 1.1v.3l-2.8 3.1v.3l-1.1 1.1v.3l-1.4 1.4v.3l-1.1 1.1v.3l-1.4 1.4v.3l-1.1 1.1v.3l-1.1 1.1v.3l-1.1 1.1v.3l-1.2 1.1v.3l-1.1 1.2v.2l-.8.9-.6 1.1-.8.9-.5-.3v-.3l-1.7-2v-.3l-5.6-6.2v-.3L101 223v-.3l-1.6-1.7v-.3l-1.7-1.7v-.2l-1.7-1.7v-.3l-1.7-1.7v-.3l-1.6-1.7v-.3l-2-1.9v-.3l-5-5.7Zm163.5-.2c-3.6 1.3-7.8 6.7-27.6 34.9-1.6 2.3-6.1 8.7-10.1 14.2-11.1 15.5-11.1 14.2.6 14.2h9.9l15.2-21.5c8.4-11.8 15.6-21.7 16-22s4.5 5 9.1 11.8c4.5 6.7 9.1 13.3 10.1 14.6s1.8 2.6 1.8 3c0 .3-6.6.5-14.7.3l-14.8-.3-3.6 4.8c-2 2.6-4.1 5.8-4.8 7l-1.2 2.3h45l.3-17.7.3-17.6-7.7-11.4c-8-11.9-10.7-14.9-14.6-16.4-2.5-1-6.8-1.1-9.2-.2"/><path d="M157 205.7c-14 2.3-25.4 11.1-28.5 21.8-4.4 15.1 2.7 29.5 18.1 36.7 6.1 2.8 8 3.2 18 3.6l11.1.4 2.9-4.2c1.6-2.3 4-5.5 5.2-7.1l2.4-2.9h-13.1c-11.5 0-13.7-.3-18.4-2.4-5.6-2.4-7.6-4.7-9.6-10.9-1.8-5.2.8-12.7 5.4-16.3 5.8-4.4 11.2-5.4 29.9-5.4h17.1l4.6-5.8c2.5-3.1 4.9-6.3 5.3-7 .6-.9-4.4-1.2-23.6-1.1-13.4.1-25.4.4-26.8.6m111.1 6-5.4 6.8 29.4.5c25.2.4 29.8.7 32.5 2.2 5 2.8 6.1 8.9 2.2 12.5-4 3.7-9.1 4.3-38 4.3H261v30h17v-17l17.3.1h17.2l6.9 8.5 6.9 8.4h23l-4.3-4.8c-2.4-2.6-7-7.3-10.3-10.4l-6-5.7 2.9-.7c9.5-2.2 15.4-9.5 15.4-19.1 0-9.8-4.7-15.8-15.2-19.7-4.6-1.7-8.7-2-31.8-2.3l-26.5-.3z"/><path d="M339 207.9c2.5 1.5 5.8 4.7 7.4 7l2.9 4.1h21.2l4.8-6.5c2.6-3.5 4.7-6.6 4.7-6.9s-10.2-.6-22.7-.6h-22.8zm40.2 3.8-5.1 6.8 14.2.5 14.2.5.3 24.2.2 24.3h17l.2-24.3.3-24.2 12.1-.5 12.1-.5 5.2-6.1c2.8-3.4 5.1-6.5 5.1-6.8s-15.9-.6-35.3-.6h-35.3z"/><path d="M350 231.3c0 .7-1.2 3.6-2.6 6.5-1.8 3.7-3.9 6.1-7.4 8.3l-4.8 3.1 9.2 9.4 9.1 9.4h36l5.2-6.8 5.2-6.7-27-.3-26.9-.2v-12h20.8l20.7-.1 1.9-2.7c1.1-1.5 3.1-4.2 4.4-6l2.4-3.2h-23.1c-18.3 0-23.1.3-23.1 1.3M281 267c0 .5.5 1 1.1 1 .5 0 .7-.5.4-1-.3-.6-.8-1-1.1-1-.2 0-.4.4-.4 1"/></g></svg>